# xmcd
#
# Track frame offsets: 
#        150
#        24356
#        55916
#        74851
#        98966
#        124266
#        160976
#        174717
#        200849
#        228092
#        256241
#
# Disc length: 3669 seconds
#
# Revision: 0
# Processed by: cddbd v1.5.2PL0 Copyright (c) Steve Scherf et al.
# Submitted via: ExactAudioCopy v1.0b4
#
DISCID=9e0e530b
DTITLE=Big Golden Wheeler - Turn My Life Around
DYEAR=2017
DGENRE=Blues
TTITLE0=The Sun Is Shining
TTITLE1=Dirty Blues
TTITLE2=I Got To Go
TTITLE3=Good Lover
TTITLE4=Blue Guitar
TTITLE5=Hey Short Woman
TTITLE6=Crazy 'bout You Baby
TTITLE7=Hard Luck Blues
TTITLE8=Honey Connie
TTITLE9=Turn My Life Around
TTITLE10=V.J. It's O.k.
EXTD=
EXTT0=
EXTT1=
EXTT2=
EXTT3=
EXTT4=
EXTT5=
EXTT6=
EXTT7=
EXTT8=
EXTT9=
EXTT10=
PLAYORDER=
